<svg width="20" height="20" viewBox="0 0 20 20" fill="none" xmlns="http://www.w3.org/2000/svg">
<path fill-rule="evenodd" clip-rule="evenodd" d="M20.0004 17.2727C20.0004 17.7745 19.5931 18.1818 19.0913 18.1818H18.1822C18.1822 19.0909 18.2777 20 17.2731 20C16.2795 20 16.3641 19.0909 16.3641 18.1818C15.455 18.1818 14.5459 18.2773 14.5459 17.2727C14.5459 16.2791 15.455 16.3636 16.3641 16.3636C16.3641 15.4545 16.2686 14.5455 17.2731 14.5455C18.2768 14.5455 18.1822 15.4545 18.1822 16.3636C19.0913 16.3636 20.0004 16.2682 20.0004 17.2727ZM11.8186 5.45455H6.36405V4.54545C6.36405 3.04182 7.58769 1.81818 9.09133 1.81818C10.595 1.81818 11.8186 2.72727 11.8186 4.54545V5.45455ZM15.1768 8.05353L15.8986 13.1072C16.4349 12.7918 17.0386 12.6628 17.6859 12.7619L16.865 7.01549C16.7368 6.12004 15.9695 5.45455 15.0649 5.45455H13.6368V4.54545C13.6368 1.81818 11.5977 0 9.09133 0C6.58496 0 4.54587 2.03909 4.54587 4.54545V5.45455H3.39586C2.4904 5.45455 1.44588 6.12004 1.31769 7.01549L0.0185889 16.1064C-0.137775 17.2019 0.712235 18.1818 1.8186 18.1818H12.7277V16.3636H2.86677C2.31404 16.3636 1.88859 15.8735 1.96678 15.3263L3.00587 8.05353C3.07042 7.60535 3.45404 7.27273 3.90586 7.27273H4.54587V9.09091C4.54587 9.59273 4.95314 10 5.45496 10C5.95678 10 6.36405 9.59273 6.36405 9.09091V7.27273H11.8186V9.09091C11.8186 9.59273 12.2259 10 12.7277 10C13.2295 10 13.6368 9.59273 13.6368 9.09091V7.27273H14.2768C14.7286 7.27273 15.1122 7.60535 15.1768 8.05353Z" fill="white"/>
</svg>
